<svg width="124" height="23" viewBox="0 0 124 23" fill="none" xmlns="http://www.w3.org/2000/svg">
<g id="StarRating">
<path id="Star 1" d="M11.1847 0L13.6957 7.72828H21.8217L15.2477 12.5046L17.7587 20.2329L11.1847 15.4566L4.6106 20.2329L7.12167 12.5046L0.547607 7.72828H8.6736L11.1847 0Z" fill="#FFFCF9"/>
<path id="Star 2" d="M36.8932 0L39.4217 7.78194L47.6042 7.78195L40.9845 12.5915L43.513 20.3734L36.8932 15.5639L30.2735 20.3734L32.802 12.5915L26.1823 7.78195L34.3647 7.78194L36.8932 0Z" fill="#FFFCF9"/>
<path id="Star 3" d="M62.5242 0L65.0527 7.78194L73.2351 7.78195L66.6154 12.5915L69.1439 20.3734L62.5242 15.5639L55.9045 20.3734L58.433 12.5915L51.8133 7.78195L59.9957 7.78194L62.5242 0Z" fill="#FFFCF9"/>
<path id="Star 4" d="M87.3786 0L89.9071 7.78194L98.0895 7.78195L91.4698 12.5915L93.9983 20.3734L87.3786 15.5639L80.7589 20.3734L83.2874 12.5915L76.6677 7.78195L84.8501 7.78194L87.3786 0Z" fill="#FFFCF9"/>
<path id="Star 5" d="M113.01 0L115.538 7.78194L123.721 7.78195L117.101 12.5915L119.629 20.3734L113.01 15.5639L106.39 20.3734L108.918 12.5915L102.299 7.78195L110.481 7.78194L113.01 0Z" fill="#FFFCF9" fill-opacity="0.4"/>
</g>
</svg>
